<?xml version="1.0" standalone="no"?>
<!DOCTYPE svg PUBLIC "-//W3C//DTD SVG 20010904//EN"
 "http://www.w3.org/TR/2001/REC-SVG-20010904/DTD/svg10.dtd">
<svg version="1.0" xmlns="http://www.w3.org/2000/svg"
 width="1024.000000pt" height="1024.000000pt" viewBox="0 0 1024.000000 1024.000000"
 preserveAspectRatio="xMidYMid meet">

<g transform="translate(0.000000,1024.000000) scale(0.100000,-0.100000)"
fill="#000000" stroke="none">
<path d="M5075 8638 c-125 -17 -248 -105 -306 -221 -64 -126 -48 -297 39 -412
42 -55 128 -125 155 -125 9 0 17 -5 17 -11 0 -7 -44 -98 -99 -203 -101 -197
-312 -600 -315 -603 -1 -1 -131 125 -289 281 l-287 282 53 55 c82 85 106 179
71 282 -20 60 -82 129 -141 158 -65 31 -169 31 -235 -1 -118 -55 -183 -196
-148 -320 28 -100 121 -183 223 -196 58 -8 58 2 13 -221 -19 -93 -47 -239 -61
-324 -28 -161 -43 -229 -50 -229 -10 0 -936 528 -949 541 -6 5 0 19 17 36 76
80 96 234 45 345 -31 68 -99 137 -165 170 -41 19 -63 23 -148 23 -118 0 -171
-21 -245 -95 -69 -68 -93 -127 -94 -230 -1 -74 3 -93 28 -147 68 -147 232
-227 393 -191 45 10 5 111 395 -1007 50 -143 92 -262 94 -264 2 -2 95 12 206
32 507 91 955 133 1623 152 222 7 815 -8 1000 -24 61 -5 175 -15 255 -21 257
-20 575 -63 888 -121 62 -12 115 -19 117 -17 3 2 68 182 146 399 278 781 317
882 335 875 35 -14 116 -17 162 -7 154 33 257 139 284 291 8 46 6 71 -6 121
-51 199 -246 306 -441 242 -147 -48 -235 -169 -235 -326 0 -74 22 -140 69
-206 l20 -27 -92 -56 c-51 -30 -207 -120 -347 -198 -140 -79 -313 -177 -384
-217 -95 -55 -131 -71 -137 -62 -4 7 -13 42 -19 78 -12 69 -117 620 -125 657
-4 19 1 22 40 27 186 26 293 223 211 390 -47 98 -134 151 -246 151 -83 0 -144
-28 -203 -94 -50 -55 -67 -103 -67 -186 0 -74 27 -134 85 -194 l43 -45 -277
-282 c-153 -156 -281 -283 -284 -283 -4 0 -7 4 -7 9 0 5 -92 185 -205 400
-113 215 -205 395 -205 399 0 4 18 16 39 26 53 23 133 96 164 149 66 113 73
246 18 362 -80 171 -244 259 -436 233z m75 -1389 c0 -40 59 -149 107 -197 56
-56 117 -88 203 -106 l63 -12 -59 -13 c-167 -37 -255 -121 -310 -294 l-18 -58
-13 50 c-33 132 -121 240 -226 280 -32 11 -68 21 -80 22 -12 0 -30 4 -41 8
-14 5 -4 11 40 20 84 19 152 54 202 102 45 45 97 140 108 195 6 35 24 37 24 3z"/>
<path d="M5205 5874 c-352 -17 -637 -55 -825 -112 -282 -85 -629 -262 -967
-493 -68 -46 -163 -111 -212 -144 -82 -55 -115 -86 -75 -71 17 7 430 42 599
51 61 3 166 10 235 16 212 16 659 38 1025 50 l350 11 95 92 c283 275 593 452
950 543 29 7 9 12 -125 26 -88 10 -198 20 -245 22 -117 7 -707 13 -805 9z"/>
<path d="M6605 5692 c-144 -10 -322 -66 -446 -138 -143 -84 -361 -279 -480
-431 l-49 -63 32 0 c18 0 107 9 198 19 284 33 748 61 1008 61 158 0 478 -15
536 -25 36 -6 33 3 -39 110 -124 184 -279 335 -408 398 -93 46 -250 77 -352
69z"/>
<path d="M7170 5616 c0 -5 31 -40 68 -80 38 -39 89 -93 113 -121 99 -113 269
-296 359 -388 53 -53 89 -95 81 -92 -96 29 -362 55 -561 55 -142 0 -553 -24
-589 -34 -9 -3 -43 -7 -76 -11 -193 -20 -762 -108 -924 -143 l-83 -18 38 -29
c103 -77 245 -235 326 -361 68 -106 128 -255 163 -404 20 -89 18 -96 -9 -24
-33 88 -120 242 -175 309 -141 171 -306 245 -469 211 -106 -22 -181 -66 -265
-156 -124 -133 -194 -298 -218 -517 -11 -100 -8 -226 7 -298 l7 -30 -28 25
c-44 40 -211 243 -320 388 l-100 134 -75 -7 c-115 -10 -334 -35 -337 -39 -12
-11 117 -177 204 -264 131 -130 285 -232 531 -351 l52 -26 -367 4 c-430 4
-363 -18 -539 176 -64 72 -134 148 -155 171 l-37 41 -184 17 c-100 9 -217 19
-258 21 -75 4 -815 60 -922 69 -67 7 -53 24 -146 -173 -34 -73 -61 -136 -58
-139 3 -3 198 -26 433 -53 695 -78 993 -116 1313 -169 192 -32 410 -61 642
-85 51 -6 57 -9 69 -37 25 -60 112 -183 171 -241 l59 -58 -38 16 c-84 35 -179
101 -261 182 l-86 85 -140 -7 c-266 -12 -970 -66 -1028 -79 -10 -2 -18 0 -18
5 0 5 6 9 13 9 29 0 258 183 245 195 -3 3 -182 26 -358 46 -47 5 -103 12 -125
14 -22 3 -114 14 -205 25 -91 11 -190 22 -220 26 -30 3 -100 11 -155 19 -55 7
-102 11 -104 9 -6 -6 80 -158 119 -210 41 -55 108 -113 150 -130 19 -9 -8 -13
-130 -24 -180 -15 -182 -12 45 -85 407 -130 1020 -244 1515 -280 47 -4 121
-11 165 -17 128 -16 1348 -23 1560 -9 612 41 1079 111 1560 233 158 40 422
123 438 138 8 7 -27 12 -211 26 l-83 6 83 41 c149 72 259 210 318 402 26 87
65 336 80 515 12 144 11 425 -1 578 -8 94 -43 303 -60 357 -9 29 -56 67 -454
379 -38 30 -122 91 -185 137 -63 45 -127 94 -142 107 -16 14 -28 22 -28 18z
m-1542 -1381 c135 -63 234 -196 278 -375 29 -114 26 -311 -5 -410 -64 -207
-185 -344 -335 -380 -102 -24 -194 8 -294 104 -65 62 -114 144 -149 245 -34
100 -43 305 -19 421 40 189 166 356 305 406 61 22 159 17 219 -11z m2087 -34
c113 -51 203 -244 205 -434 1 -183 -77 -359 -186 -423 -62 -36 -152 -32 -213
10 -207 143 -229 607 -38 794 71 70 154 89 232 53z m-761 -728 c4 -16 27 -69
52 -120 52 -106 146 -215 215 -250 l44 -23 -38 0 c-20 0 -133 9 -250 20 -283
26 -692 58 -852 65 l-130 6 -28 -48 c-35 -59 -68 -97 -127 -144 -40 -32 -115
-79 -125 -79 -2 0 19 21 47 48 96 90 160 195 214 352 l32 95 94 12 c51 7 201
24 333 38 132 14 290 32 350 39 165 20 162 20 169 -11z"/>
<path d="M5483 4078 c-28 -13 -28 -16 -3 -123 11 -47 20 -99 20 -115 0 -16 5
-32 10 -35 6 -3 10 4 10 17 0 19 37 163 56 218 3 9 -6 22 -25 33 -33 19 -38
20 -68 5z"/>
<path d="M5302 3879 c-40 -91 -40 -89 44 -131 l75 -37 10 27 c11 29 9 34 -58
140 -19 28 -37 52 -41 52 -4 0 -17 -23 -30 -51z"/>
<path d="M5633 3841 c-80 -119 -70 -140 46 -94 39 15 71 32 71 38 0 14 -53
135 -60 135 -3 -1 -29 -36 -57 -79z"/>
<path d="M5466 3718 c-23 -33 -20 -75 9 -103 13 -14 28 -25 33 -25 21 0 52 37
58 67 5 26 1 37 -19 57 -32 32 -61 33 -81 4z"/>
<path d="M5380 3596 c-14 -8 -44 -20 -67 -27 -51 -15 -52 -22 -14 -108 l28
-63 25 33 c59 79 78 115 78 146 0 36 -11 40 -50 19z"/>
<path d="M5580 3582 c0 -15 7 -39 17 -52 36 -54 87 -120 94 -120 3 0 14 21 24
48 10 26 22 51 26 57 17 18 8 26 -63 60 -88 42 -98 43 -98 7z"/>
<path d="M5496 3477 c-4 -32 -16 -90 -27 -128 -11 -39 -17 -74 -14 -78 2 -5
18 -14 34 -21 27 -11 34 -9 61 10 17 12 29 27 26 34 -7 16 -53 164 -63 206 -9
35 -9 35 -17 -23z"/>
<path d="M7615 4066 c-14 -10 -16 -20 -11 -42 4 -16 12 -58 18 -94 12 -72 15
-69 42 43 9 38 13 73 10 78 -12 21 -41 28 -59 15z"/>
<path d="M7498 3905 l-17 -45 37 -25 c69 -47 83 -26 38 57 -17 32 -33 58 -36
58 -3 0 -13 -20 -22 -45z"/>
<path d="M7717 3887 c-36 -57 -44 -77 -29 -77 20 0 102 35 102 44 0 6 -9 29
-18 51 l-18 40 -37 -58z"/>
<path d="M7604 3806 c-3 -8 -4 -29 -2 -48 2 -26 8 -34 27 -36 13 -2 28 2 32
10 13 19 11 62 -3 76 -16 16 -47 15 -54 -2z"/>
<path d="M7523 3700 c-24 -10 -43 -23 -43 -27 0 -4 8 -30 18 -56 l19 -49 37
63 c33 56 40 89 19 89 -4 0 -27 -9 -50 -20z"/>
<path d="M7670 3710 c0 -12 73 -130 80 -130 6 0 44 90 39 93 -19 12 -102 47
-109 47 -6 0 -10 -5 -10 -10z"/>
<path d="M7620 3620 c0 -21 -5 -62 -11 -91 -10 -44 -9 -54 5 -67 23 -24 52 -4
49 34 -4 57 -26 164 -35 164 -4 0 -8 -18 -8 -40z"/>
<path d="M4975 4914 c-457 -57 -1046 -139 -1051 -147 0 -1 -50 -67 -110 -147
-60 -80 -145 -193 -188 -253 -47 -64 -87 -109 -100 -112 -47 -10 -339 -36
-461 -41 -109 -4 -162 0 -325 23 l-194 28 -7 35 c-5 19 -17 124 -29 232 l-22
198 26 77 c14 42 24 79 21 81 -2 3 -42 -7 -89 -22 -97 -30 -87 -14 -132 -205
-30 -130 -30 -141 23 -316 43 -146 62 -184 105 -212 61 -39 304 -178 399 -227
l94 -49 220 77 c121 43 319 112 439 154 l219 76 82 111 c45 60 88 116 97 122
11 10 606 113 650 113 6 0 68 56 137 124 145 143 212 201 295 257 66 44 69 44
-99 23z"/>
<path d="M3205 4730 c-264 -4 -515 -11 -558 -15 l-77 -7 5 -32 c6 -33 35 -293
35 -313 0 -17 18 -21 195 -39 162 -16 255 -15 490 7 61 5 125 11 142 13 29 2
42 15 114 117 45 63 108 149 141 191 32 42 58 79 58 82 0 3 -15 5 -32 4 -18
-1 -249 -5 -513 -8z"/>
<path d="M2215 4268 c-24 -71 -36 -511 -17 -583 9 -29 9 -28 26 30 9 33 42
137 72 232 l54 172 -65 81 c-37 46 -67 75 -70 68z"/>
<path d="M7990 3275 c0 -2 14 -32 32 -66 95 -181 14 -315 -277 -459 -77 -38
-194 -88 -259 -110 -372 -126 -1023 -234 -1652 -272 -422 -26 -1352 -14 -1659
22 -44 5 -147 16 -230 25 -287 31 -715 103 -921 155 -117 30 -275 83 -396 133
-257 106 -401 225 -422 350 -9 47 14 129 48 180 30 44 22 46 -47 11 -76 -39
-132 -79 -193 -140 -78 -78 -98 -122 -99 -214 0 -97 26 -152 115 -240 278
-275 1061 -489 2165 -590 529 -48 1219 -54 1709 -14 862 69 1559 206 1982 388
239 104 394 220 449 337 47 101 29 208 -50 304 -45 56 -295 225 -295 200z"/>
</g>
</svg>
