<?xml version="1.0" encoding="UTF-8"?>
<svg xmlns="http://www.w3.org/2000/svg" xmlns:xlink="http://www.w3.org/1999/xlink" width="500px" height="500px" viewBox="0 0 500 500" version="1.1">
<g id="surface1">
<path style=" stroke:none;fill-rule:nonzero;fill:rgb(0%,0%,0%);fill-opacity:1;" d="M 247.804688 78.222656 C 241.699219 79.054688 235.695312 83.351562 232.859375 89.015625 C 229.734375 95.164062 230.515625 103.515625 234.765625 109.132812 C 236.816406 111.816406 241.015625 115.234375 242.335938 115.234375 C 242.773438 115.234375 243.164062 115.476562 243.164062 115.773438 C 243.164062 116.113281 241.015625 120.554688 238.328125 125.683594 C 233.398438 135.304688 223.09375 154.980469 222.949219 155.125 C 222.898438 155.175781 216.554688 149.023438 208.835938 141.40625 L 194.824219 127.636719 L 197.414062 124.953125 C 201.414062 120.800781 202.585938 116.210938 200.878906 111.179688 C 199.902344 108.25 196.875 104.882812 193.992188 103.46875 C 190.820312 101.953125 185.742188 101.953125 182.519531 103.515625 C 176.757812 106.203125 173.585938 113.085938 175.292969 119.140625 C 176.660156 124.023438 181.203125 128.078125 186.179688 128.710938 C 189.015625 129.101562 189.015625 128.613281 186.816406 139.5 C 185.890625 144.042969 184.523438 151.171875 183.835938 155.320312 C 182.46875 163.183594 181.738281 166.503906 181.398438 166.503906 C 180.90625 166.503906 135.695312 140.722656 135.058594 140.085938 C 134.765625 139.84375 135.058594 139.160156 135.890625 138.328125 C 139.601562 134.421875 140.578125 126.90625 138.085938 121.484375 C 136.570312 118.164062 133.25 114.796875 130.03125 113.183594 C 128.027344 112.257812 126.953125 112.0625 122.804688 112.0625 C 117.039062 112.0625 114.453125 113.085938 110.839844 116.699219 C 107.46875 120.019531 106.296875 122.898438 106.25 127.929688 C 106.203125 131.542969 106.398438 132.46875 107.617188 135.109375 C 110.9375 142.285156 118.945312 146.191406 126.804688 144.433594 C 129.003906 143.945312 127.050781 139.015625 146.09375 193.601562 C 148.535156 200.585938 150.585938 206.398438 150.683594 206.492188 C 150.78125 206.59375 155.320312 205.90625 160.742188 204.929688 C 185.5 200.488281 207.375 198.4375 239.992188 197.507812 C 250.828125 197.167969 279.785156 197.898438 288.820312 198.679688 C 291.796875 198.925781 297.363281 199.414062 301.269531 199.707031 C 313.820312 200.683594 329.34375 202.78125 344.628906 205.617188 C 347.65625 206.203125 350.242188 206.542969 350.34375 206.445312 C 350.488281 206.347656 353.664062 197.558594 357.46875 186.960938 C 371.046875 148.828125 372.949219 143.898438 373.828125 144.238281 C 375.539062 144.921875 379.492188 145.070312 381.738281 144.578125 C 389.257812 142.96875 394.289062 137.792969 395.605469 130.371094 C 395.996094 128.125 395.898438 126.90625 395.3125 124.460938 C 392.820312 114.746094 383.300781 109.523438 373.78125 112.648438 C 366.601562 114.992188 362.304688 120.898438 362.304688 128.5625 C 362.304688 132.179688 363.378906 135.398438 365.671875 138.625 L 366.648438 139.941406 L 362.15625 142.675781 C 359.667969 144.140625 352.050781 148.535156 345.214844 152.34375 C 338.378906 156.203125 329.929688 160.984375 326.464844 162.9375 C 321.828125 165.625 320.070312 166.40625 319.773438 165.96875 C 319.578125 165.625 319.140625 163.914062 318.847656 162.15625 C 318.261719 158.789062 313.132812 131.882812 312.742188 130.078125 C 312.546875 129.148438 312.792969 129.003906 314.695312 128.757812 C 323.78125 127.492188 329.003906 117.871094 325 109.71875 C 322.703125 104.929688 318.457031 102.34375 312.988281 102.34375 C 308.9375 102.34375 305.957031 103.710938 303.078125 106.933594 C 300.632812 109.617188 299.804688 111.960938 299.804688 116.015625 C 299.804688 119.628906 301.125 122.558594 303.953125 125.488281 L 306.054688 127.6875 L 292.53125 141.453125 C 285.058594 149.070312 278.808594 155.273438 278.664062 155.273438 C 278.46875 155.273438 278.320312 155.078125 278.320312 154.835938 C 278.320312 154.589844 273.828125 145.800781 268.3125 135.304688 C 262.792969 124.804688 258.300781 116.015625 258.300781 115.820312 C 258.300781 115.625 259.179688 115.039062 260.203125 114.550781 C 262.792969 113.429688 266.699219 109.863281 268.210938 107.273438 C 271.4375 101.757812 271.777344 95.265625 269.09375 89.601562 C 265.1875 81.25 257.179688 76.953125 247.804688 78.222656 Z M 251.464844 146.046875 C 251.464844 148 254.34375 153.320312 256.6875 155.664062 C 259.421875 158.398438 262.402344 159.960938 266.601562 160.839844 L 269.679688 161.425781 L 266.796875 162.0625 C 258.640625 163.867188 254.34375 167.96875 251.660156 176.414062 L 250.78125 179.25 L 250.148438 176.804688 C 248.535156 170.359375 244.238281 165.085938 239.109375 163.132812 C 237.546875 162.597656 235.789062 162.109375 235.203125 162.0625 C 234.617188 162.0625 233.742188 161.867188 233.203125 161.671875 C 232.519531 161.425781 233.007812 161.132812 235.15625 160.695312 C 239.257812 159.765625 242.578125 158.054688 245.019531 155.710938 C 247.21875 153.515625 249.757812 148.875 250.292969 146.191406 C 250.585938 144.484375 251.464844 144.382812 251.464844 146.046875 Z M 251.464844 146.046875 "/>
<path style=" stroke:none;fill-rule:nonzero;fill:rgb(0%,0%,0%);fill-opacity:1;" d="M 254.148438 213.183594 C 236.960938 214.015625 223.046875 215.867188 213.867188 218.652344 C 200.097656 222.804688 183.15625 231.445312 166.648438 242.726562 C 163.328125 244.96875 158.691406 248.144531 156.296875 249.757812 C 152.296875 252.441406 150.683594 253.953125 152.636719 253.222656 C 153.46875 252.882812 173.632812 251.171875 181.882812 250.734375 C 184.863281 250.585938 189.992188 250.242188 193.359375 249.953125 C 203.710938 249.171875 225.539062 248.09375 243.40625 247.507812 L 260.5 246.972656 L 265.136719 242.480469 C 278.953125 229.054688 294.09375 220.410156 311.523438 215.96875 C 312.9375 215.625 311.960938 215.382812 305.421875 214.695312 C 301.125 214.210938 295.75 213.71875 293.457031 213.625 C 287.742188 213.28125 258.9375 212.988281 254.148438 213.183594 Z M 254.148438 213.183594 "/>
<path style=" stroke:none;fill-rule:nonzero;fill:rgb(0%,0%,0%);fill-opacity:1;" d="M 322.507812 222.070312 C 315.476562 222.558594 306.789062 225.292969 300.734375 228.808594 C 293.75 232.910156 283.105469 242.429688 277.296875 249.851562 L 274.902344 252.929688 L 276.464844 252.929688 C 277.34375 252.929688 281.6875 252.492188 286.132812 252 C 300 250.390625 322.65625 249.023438 335.351562 249.023438 C 343.066406 249.023438 358.691406 249.757812 361.523438 250.242188 C 363.28125 250.539062 363.132812 250.097656 359.617188 244.875 C 353.5625 235.890625 345.996094 228.515625 339.695312 225.4375 C 335.15625 223.195312 327.492188 221.679688 322.507812 222.070312 Z M 322.507812 222.070312 "/>
<path style=" stroke:none;fill-rule:nonzero;fill:rgb(0%,0%,0%);fill-opacity:1;" d="M 350.097656 225.78125 C 350.097656 226.023438 351.609375 227.734375 353.417969 229.6875 C 355.273438 231.59375 357.765625 234.226562 358.9375 235.59375 C 363.769531 241.113281 372.070312 250.046875 376.464844 254.539062 C 379.054688 257.128906 380.8125 259.179688 380.421875 259.03125 C 375.734375 257.617188 362.742188 256.347656 353.027344 256.347656 C 346.09375 256.347656 326.023438 257.519531 324.265625 258.007812 C 323.828125 258.15625 322.167969 258.351562 320.554688 258.546875 C 311.132812 259.523438 283.351562 263.820312 275.4375 265.527344 L 271.386719 266.40625 L 273.242188 267.820312 C 278.273438 271.582031 285.203125 279.296875 289.160156 285.449219 C 292.480469 290.625 295.410156 297.898438 297.117188 305.175781 C 298.09375 309.523438 298 309.863281 296.679688 306.347656 C 295.070312 302.050781 290.820312 294.53125 288.132812 291.257812 C 281.25 282.910156 273.195312 279.296875 265.234375 280.957031 C 260.058594 282.03125 256.398438 284.179688 252.296875 288.574219 C 246.242188 295.070312 242.820312 303.125 241.648438 313.820312 C 241.113281 318.703125 241.257812 324.851562 241.992188 328.367188 L 242.335938 329.835938 L 240.96875 328.613281 C 238.820312 326.660156 230.664062 316.75 225.34375 309.667969 L 220.460938 303.125 L 216.796875 303.46875 C 211.179688 303.953125 200.488281 305.175781 200.34375 305.371094 C 199.757812 305.90625 206.054688 314.015625 210.304688 318.261719 C 216.699219 324.609375 224.21875 329.589844 236.230469 335.398438 L 238.769531 336.671875 L 220.851562 336.476562 C 199.851562 336.28125 203.125 337.351562 194.53125 327.882812 C 191.40625 324.367188 187.988281 320.65625 186.960938 319.53125 L 185.15625 317.53125 L 176.171875 316.699219 C 171.289062 316.257812 165.578125 315.773438 163.574219 315.671875 C 159.914062 315.476562 123.78125 312.742188 118.554688 312.304688 C 115.28125 311.960938 115.96875 311.132812 111.425781 320.75 C 109.765625 324.316406 108.445312 327.390625 108.59375 327.539062 C 108.742188 327.6875 118.261719 328.808594 129.734375 330.125 C 163.671875 333.9375 178.222656 335.789062 193.847656 338.378906 C 203.222656 339.941406 213.867188 341.359375 225.195312 342.53125 C 227.6875 342.820312 227.976562 342.96875 228.5625 344.335938 C 229.785156 347.265625 234.03125 353.273438 236.914062 356.101562 L 239.796875 358.9375 L 237.9375 358.15625 C 233.835938 356.445312 229.199219 353.222656 225.195312 349.265625 L 220.996094 345.117188 L 214.160156 345.460938 C 201.171875 346.046875 166.796875 348.679688 163.964844 349.316406 C 163.476562 349.414062 163.085938 349.316406 163.085938 349.070312 C 163.085938 348.828125 163.378906 348.632812 163.71875 348.632812 C 165.136719 348.632812 176.320312 339.695312 175.683594 339.109375 C 175.539062 338.964844 166.796875 337.84375 158.203125 336.867188 C 155.90625 336.621094 153.171875 336.28125 152.101562 336.179688 C 151.023438 336.035156 146.53125 335.5 142.089844 334.960938 C 137.648438 334.421875 132.8125 333.886719 131.347656 333.691406 C 129.882812 333.546875 126.464844 333.15625 123.78125 332.765625 C 121.09375 332.421875 118.796875 332.226562 118.703125 332.324219 C 118.40625 332.617188 122.609375 340.039062 124.511719 342.578125 C 126.515625 345.265625 129.785156 348.09375 131.835938 348.925781 C 132.765625 349.367188 131.445312 349.5625 125.488281 350.097656 C 116.699219 350.828125 116.601562 350.683594 127.6875 354.25 C 147.558594 360.59375 177.492188 366.164062 201.660156 367.921875 C 203.953125 368.117188 207.570312 368.457031 209.71875 368.75 C 215.96875 369.53125 275.539062 369.875 285.890625 369.1875 C 315.773438 367.1875 338.574219 363.769531 362.0625 357.8125 C 369.773438 355.859375 382.664062 351.804688 383.445312 351.074219 C 383.835938 350.734375 382.128906 350.488281 373.144531 349.804688 L 369.09375 349.511719 L 373.144531 347.507812 C 380.421875 343.992188 385.789062 337.257812 388.671875 327.882812 C 389.941406 323.632812 391.84375 311.476562 392.578125 302.734375 C 393.164062 295.703125 393.117188 281.984375 392.53125 274.511719 C 392.140625 269.921875 390.429688 259.71875 389.601562 257.078125 C 389.160156 255.664062 386.867188 253.808594 367.429688 238.574219 C 365.578125 237.109375 361.476562 234.132812 358.398438 231.882812 C 355.320312 229.6875 352.195312 227.296875 351.464844 226.660156 C 350.683594 225.976562 350.097656 225.585938 350.097656 225.78125 Z M 274.804688 293.210938 C 281.398438 296.289062 286.230469 302.78125 288.378906 311.523438 C 289.796875 317.089844 289.648438 326.710938 288.132812 331.542969 C 285.007812 341.648438 279.101562 348.339844 271.777344 350.097656 C 266.796875 351.269531 262.304688 349.707031 257.421875 345.019531 C 254.25 341.992188 251.855469 337.988281 250.148438 333.054688 C 248.484375 328.171875 248.046875 318.164062 249.21875 312.5 C 251.171875 303.273438 257.324219 295.117188 264.109375 292.675781 C 267.089844 291.601562 271.875 291.84375 274.804688 293.210938 Z M 376.710938 294.875 C 382.226562 297.363281 386.621094 306.789062 386.71875 316.0625 C 386.765625 325 382.960938 333.59375 377.636719 336.71875 C 374.609375 338.476562 370.214844 338.28125 367.234375 336.230469 C 357.128906 329.25 356.054688 306.59375 365.382812 297.460938 C 368.847656 294.042969 372.898438 293.117188 376.710938 294.875 Z M 339.550781 330.421875 C 339.746094 331.203125 340.867188 333.789062 342.089844 336.28125 C 344.628906 341.453125 349.21875 346.777344 352.585938 348.484375 L 354.734375 349.609375 L 352.882812 349.609375 C 351.90625 349.609375 346.386719 349.171875 340.671875 348.632812 C 326.855469 347.363281 306.882812 345.800781 299.070312 345.460938 L 292.726562 345.164062 L 291.359375 347.507812 C 289.648438 350.390625 288.039062 352.246094 285.15625 354.539062 C 283.203125 356.101562 279.539062 358.398438 279.054688 358.398438 C 278.953125 358.398438 279.980469 357.375 281.347656 356.054688 C 286.035156 351.660156 289.160156 346.53125 291.796875 338.867188 L 293.359375 334.226562 L 297.949219 333.640625 C 300.4375 333.300781 307.765625 332.46875 314.210938 331.789062 C 320.65625 331.101562 328.367188 330.226562 331.296875 329.882812 C 339.355469 328.90625 339.210938 328.90625 339.550781 330.421875 Z M 339.550781 330.421875 "/>
<path style=" stroke:none;fill-rule:nonzero;fill:rgb(0%,0%,0%);fill-opacity:1;" d="M 267.726562 300.878906 C 266.359375 301.515625 266.359375 301.660156 267.578125 306.882812 C 268.117188 309.179688 268.554688 311.71875 268.554688 312.5 C 268.554688 313.28125 268.796875 314.0625 269.042969 314.210938 C 269.335938 314.355469 269.53125 314.015625 269.53125 313.378906 C 269.53125 312.453125 271.335938 305.421875 272.265625 302.734375 C 272.414062 302.296875 271.972656 301.660156 271.046875 301.125 C 269.433594 300.195312 269.1875 300.148438 267.726562 300.878906 Z M 267.726562 300.878906 "/>
<path style=" stroke:none;fill-rule:nonzero;fill:rgb(0%,0%,0%);fill-opacity:1;" d="M 258.886719 310.59375 C 256.933594 315.039062 256.933594 314.941406 261.035156 316.992188 L 264.695312 318.796875 L 265.1875 317.480469 C 265.722656 316.0625 265.625 315.820312 262.351562 310.644531 C 261.425781 309.277344 260.546875 308.105469 260.351562 308.105469 C 260.15625 308.105469 259.523438 309.226562 258.886719 310.59375 Z M 258.886719 310.59375 "/>
<path style=" stroke:none;fill-rule:nonzero;fill:rgb(0%,0%,0%);fill-opacity:1;" d="M 275.046875 312.453125 C 271.140625 318.261719 271.632812 319.289062 277.296875 317.039062 C 279.199219 316.308594 280.761719 315.476562 280.761719 315.1875 C 280.761719 314.5 278.171875 308.59375 277.832031 308.59375 C 277.6875 308.640625 276.414062 310.351562 275.046875 312.453125 Z M 275.046875 312.453125 "/>
<path style=" stroke:none;fill-rule:nonzero;fill:rgb(0%,0%,0%);fill-opacity:1;" d="M 266.894531 318.457031 C 265.773438 320.070312 265.917969 322.117188 267.335938 323.484375 C 267.96875 324.171875 268.703125 324.707031 268.945312 324.707031 C 269.96875 324.707031 271.484375 322.898438 271.777344 321.4375 C 272.023438 320.164062 271.828125 319.628906 270.851562 318.652344 C 269.289062 317.089844 267.871094 317.039062 266.894531 318.457031 Z M 266.894531 318.457031 "/>
<path style=" stroke:none;fill-rule:nonzero;fill:rgb(0%,0%,0%);fill-opacity:1;" d="M 262.695312 324.414062 C 262.011719 324.804688 260.546875 325.390625 259.421875 325.734375 C 256.933594 326.464844 256.882812 326.804688 258.742188 331.007812 L 260.109375 334.082031 L 261.328125 332.46875 C 264.210938 328.613281 265.136719 326.855469 265.136719 325.34375 C 265.136719 323.585938 264.601562 323.390625 262.695312 324.414062 Z M 262.695312 324.414062 "/>
<path style=" stroke:none;fill-rule:nonzero;fill:rgb(0%,0%,0%);fill-opacity:1;" d="M 272.460938 325.097656 C 272.460938 325.828125 272.804688 327 273.289062 327.636719 C 275.046875 330.273438 277.539062 333.496094 277.882812 333.496094 C 278.027344 333.496094 278.5625 332.46875 279.054688 331.152344 C 279.539062 329.882812 280.125 328.664062 280.320312 328.367188 C 281.152344 327.492188 280.710938 327.101562 277.246094 325.4375 C 272.949219 323.390625 272.460938 323.339844 272.460938 325.097656 Z M 272.460938 325.097656 "/>
<path style=" stroke:none;fill-rule:nonzero;fill:rgb(0%,0%,0%);fill-opacity:1;" d="M 268.359375 330.226562 C 268.164062 331.789062 267.578125 334.617188 267.039062 336.476562 C 266.503906 338.378906 266.210938 340.085938 266.359375 340.28125 C 266.453125 340.527344 267.234375 340.96875 268.015625 341.308594 C 269.335938 341.84375 269.679688 341.75 270.996094 340.820312 C 271.828125 340.234375 272.414062 339.5 272.265625 339.160156 C 271.921875 338.378906 269.679688 331.152344 269.1875 329.101562 C 268.75 327.390625 268.75 327.390625 268.359375 330.226562 Z M 268.359375 330.226562 "/>
<path style=" stroke:none;fill-rule:nonzero;fill:rgb(0%,0%,0%);fill-opacity:1;" d="M 371.828125 301.464844 C 371.140625 301.953125 371.046875 302.441406 371.289062 303.515625 C 371.484375 304.296875 371.875 306.347656 372.167969 308.105469 C 372.753906 311.621094 372.898438 311.476562 374.21875 306.007812 C 374.65625 304.148438 374.851562 302.441406 374.707031 302.195312 C 374.121094 301.171875 372.703125 300.828125 371.828125 301.464844 Z M 371.828125 301.464844 "/>
<path style=" stroke:none;fill-rule:nonzero;fill:rgb(0%,0%,0%);fill-opacity:1;" d="M 366.113281 309.328125 L 365.28125 311.523438 L 367.089844 312.742188 C 370.460938 315.039062 371.140625 314.015625 368.945312 309.960938 C 368.117188 308.398438 367.335938 307.128906 367.1875 307.128906 C 367.039062 307.128906 366.554688 308.105469 366.113281 309.328125 Z M 366.113281 309.328125 "/>
<path style=" stroke:none;fill-rule:nonzero;fill:rgb(0%,0%,0%);fill-opacity:1;" d="M 376.804688 310.203125 C 375.046875 312.988281 374.65625 313.964844 375.390625 313.964844 C 376.367188 313.964844 380.371094 312.257812 380.371094 311.816406 C 380.371094 311.523438 379.929688 310.398438 379.492188 309.328125 L 378.613281 307.375 Z M 376.804688 310.203125 "/>
<path style=" stroke:none;fill-rule:nonzero;fill:rgb(0%,0%,0%);fill-opacity:1;" d="M 371.289062 314.160156 C 371.140625 314.550781 371.09375 315.578125 371.191406 316.503906 C 371.289062 317.773438 371.582031 318.164062 372.507812 318.261719 C 373.144531 318.359375 373.875 318.164062 374.070312 317.773438 C 374.707031 316.84375 374.609375 314.746094 373.925781 314.0625 C 373.144531 313.28125 371.632812 313.328125 371.289062 314.160156 Z M 371.289062 314.160156 "/>
<path style=" stroke:none;fill-rule:nonzero;fill:rgb(0%,0%,0%);fill-opacity:1;" d="M 367.335938 319.335938 C 366.164062 319.824219 365.234375 320.460938 365.234375 320.65625 C 365.234375 320.851562 365.625 322.117188 366.113281 323.390625 L 367.039062 325.78125 L 368.847656 322.703125 C 370.460938 319.96875 370.800781 318.359375 369.773438 318.359375 C 369.578125 318.359375 368.457031 318.796875 367.335938 319.335938 Z M 367.335938 319.335938 "/>
<path style=" stroke:none;fill-rule:nonzero;fill:rgb(0%,0%,0%);fill-opacity:1;" d="M 374.511719 318.847656 C 374.511719 319.433594 378.078125 325.195312 378.417969 325.195312 C 378.710938 325.195312 380.566406 320.800781 380.320312 320.65625 C 379.394531 320.070312 375.34375 318.359375 375 318.359375 C 374.707031 318.359375 374.511719 318.601562 374.511719 318.847656 Z M 374.511719 318.847656 "/>
<path style=" stroke:none;fill-rule:nonzero;fill:rgb(0%,0%,0%);fill-opacity:1;" d="M 372.070312 323.242188 C 372.070312 324.265625 371.828125 326.269531 371.53125 327.6875 C 371.046875 329.835938 371.09375 330.320312 371.777344 330.957031 C 372.898438 332.128906 374.316406 331.152344 374.171875 329.296875 C 373.976562 326.515625 372.898438 321.289062 372.460938 321.289062 C 372.265625 321.289062 372.070312 322.167969 372.070312 323.242188 Z M 372.070312 323.242188 "/>
<path style=" stroke:none;fill-rule:nonzero;fill:rgb(0%,0%,0%);fill-opacity:1;" d="M 242.921875 260.058594 C 220.605469 262.84375 191.84375 266.84375 191.601562 267.234375 C 191.601562 267.285156 189.160156 270.507812 186.230469 274.414062 C 183.300781 278.320312 179.148438 283.835938 177.050781 286.765625 C 174.757812 289.890625 172.804688 292.089844 172.167969 292.234375 C 169.875 292.726562 155.617188 293.992188 149.65625 294.238281 C 144.335938 294.433594 141.75 294.238281 133.789062 293.117188 L 124.316406 291.75 L 123.976562 290.039062 C 123.730469 289.109375 123.144531 283.984375 122.558594 278.710938 L 121.484375 269.042969 L 122.753906 265.28125 C 123.4375 263.234375 123.925781 261.425781 123.78125 261.328125 C 123.679688 261.179688 121.726562 261.671875 119.433594 262.402344 C 114.695312 263.867188 115.1875 263.085938 112.988281 272.414062 C 111.523438 278.757812 111.523438 279.296875 114.109375 287.84375 C 116.210938 294.96875 117.140625 296.828125 119.238281 298.195312 C 122.21875 300.097656 134.082031 306.882812 138.71875 309.277344 L 143.3125 311.671875 L 154.054688 307.910156 C 159.960938 305.8125 169.628906 302.441406 175.488281 300.390625 L 186.179688 296.679688 L 190.1875 291.257812 C 192.382812 288.328125 194.484375 285.59375 194.921875 285.304688 C 195.460938 284.8125 224.511719 279.785156 226.660156 279.785156 C 226.953125 279.785156 229.980469 277.050781 233.351562 273.730469 C 240.429688 266.75 243.703125 263.914062 247.753906 261.179688 C 250.976562 259.03125 251.125 259.03125 242.921875 260.058594 Z M 242.921875 260.058594 "/>
<path style=" stroke:none;fill-rule:nonzero;fill:rgb(0%,0%,0%);fill-opacity:1;" d="M 156.492188 269.042969 C 143.601562 269.238281 131.347656 269.578125 129.25 269.773438 L 125.488281 270.117188 L 125.734375 271.679688 C 126.023438 273.289062 127.441406 285.984375 127.441406 286.960938 C 127.441406 287.792969 128.320312 287.988281 136.960938 288.867188 C 144.875 289.648438 149.414062 289.601562 160.890625 288.523438 C 163.867188 288.28125 166.992188 287.988281 167.820312 287.890625 C 169.238281 287.792969 169.875 287.15625 173.390625 282.179688 C 175.585938 279.101562 178.664062 274.902344 180.273438 272.851562 C 181.835938 270.800781 183.105469 268.992188 183.105469 268.847656 C 183.105469 268.703125 182.375 268.601562 181.542969 268.652344 C 180.664062 268.703125 169.382812 268.898438 156.492188 269.042969 Z M 156.492188 269.042969 "/>
<path style=" stroke:none;fill-rule:nonzero;fill:rgb(0%,0%,0%);fill-opacity:1;" d="M 108.15625 291.601562 C 106.984375 295.070312 106.398438 316.554688 107.324219 320.070312 C 107.765625 321.484375 107.765625 321.4375 108.59375 318.601562 C 109.03125 316.992188 110.644531 311.914062 112.109375 307.273438 L 114.746094 298.875 L 111.570312 294.921875 C 109.765625 292.675781 108.300781 291.257812 108.15625 291.601562 Z M 108.15625 291.601562 "/>
<path style=" stroke:none;fill-rule:nonzero;fill:rgb(0%,0%,0%);fill-opacity:1;" d="M 390.136719 340.085938 C 390.136719 340.1875 390.820312 341.648438 391.699219 343.3125 C 396.335938 352.148438 392.382812 358.691406 378.171875 365.722656 C 374.414062 367.578125 368.703125 370.019531 365.527344 371.09375 C 347.363281 377.246094 315.578125 382.519531 284.863281 384.375 C 264.257812 385.644531 218.847656 385.058594 203.859375 383.300781 C 201.710938 383.054688 196.679688 382.519531 192.625 382.078125 C 178.613281 380.566406 157.714844 377.050781 147.65625 374.511719 C 141.945312 373.046875 134.226562 370.460938 128.320312 368.015625 C 115.773438 362.84375 108.742188 357.03125 107.714844 350.929688 C 107.273438 348.632812 108.398438 344.628906 110.058594 342.140625 C 111.523438 339.992188 111.132812 339.890625 107.765625 341.601562 C 104.054688 343.507812 101.320312 345.460938 98.339844 348.4375 C 94.53125 352.246094 93.554688 354.394531 93.507812 358.886719 C 93.507812 363.625 94.773438 366.308594 99.121094 370.605469 C 112.695312 384.03125 150.929688 394.484375 204.835938 399.414062 C 230.664062 401.757812 264.355469 402.050781 288.28125 400.097656 C 330.371094 396.726562 364.40625 390.039062 385.058594 381.152344 C 396.726562 376.074219 404.296875 370.410156 406.984375 364.695312 C 409.277344 359.765625 408.398438 354.539062 404.539062 349.851562 C 402.34375 347.117188 390.136719 338.867188 390.136719 340.085938 Z M 390.136719 340.085938 "/>
</g>
</svg>
